<svg width="523" height="92" viewBox="0 0 523 92" fill="none" xmlns="http://www.w3.org/2000/svg">
<path d="M75.2297 15.0565V81.4858H59.0482V41.6471L44.1916 81.4858H31.1328L16.1815 41.5525V81.4858H0V15.0565H19.115L37.7568 61.046L56.2094 15.0565H75.2297Z" fill="white"/>
<path d="M118.283 82.1482C112.037 82.1482 106.296 80.6972 101.06 77.7953C95.8873 74.8933 91.7552 70.8558 88.664 65.6828C85.6359 60.4467 84.1218 54.5797 84.1218 48.0819C84.1218 41.5841 85.6359 35.7486 88.664 30.5756C91.7552 25.4026 95.8873 21.3651 101.06 18.4631C106.296 15.5612 112.037 14.1102 118.283 14.1102C124.528 14.1102 130.238 15.5612 135.411 18.4631C140.647 21.3651 144.747 25.4026 147.712 30.5756C150.74 35.7486 152.254 41.5841 152.254 48.0819C152.254 54.5797 150.74 60.4467 147.712 65.6828C144.684 70.8558 140.584 74.8933 135.411 77.7953C130.238 80.6972 124.528 82.1482 118.283 82.1482ZM118.283 67.3861C123.582 67.3861 127.809 65.6197 130.963 62.0869C134.18 58.5541 135.789 53.8858 135.789 48.0819C135.789 42.2149 134.18 37.5466 130.963 34.0769C127.809 30.5441 123.582 28.7777 118.283 28.7777C112.92 28.7777 108.631 30.5125 105.413 33.9822C102.259 37.4519 100.682 42.1518 100.682 48.0819C100.682 53.9489 102.259 58.6487 105.413 62.1815C108.631 65.6513 112.92 67.3861 118.283 67.3861Z" fill="white"/>
<path d="M192.673 82.1482C186.428 82.1482 180.687 80.6972 175.451 77.7953C170.278 74.8933 166.146 70.8558 163.055 65.6828C160.027 60.4467 158.512 54.5797 158.512 48.0819C158.512 41.5841 160.027 35.7486 163.055 30.5756C166.146 25.4026 170.278 21.3651 175.451 18.4631C180.687 15.5612 186.428 14.1102 192.673 14.1102C198.919 14.1102 204.628 15.5612 209.801 18.4631C215.037 21.3651 219.138 25.4026 222.103 30.5756C225.131 35.7486 226.645 41.5841 226.645 48.0819C226.645 54.5797 225.131 60.4467 222.103 65.6828C219.075 70.8558 214.974 74.8933 209.801 77.7953C204.628 80.6972 198.919 82.1482 192.673 82.1482ZM192.673 67.3861C197.973 67.3861 202.199 65.6197 205.354 62.0869C208.571 58.5541 210.18 53.8858 210.18 48.0819C210.18 42.2149 208.571 37.5466 205.354 34.0769C202.199 30.5441 197.973 28.7777 192.673 28.7777C187.311 28.7777 183.021 30.5125 179.804 33.9822C176.65 37.4519 175.072 42.1518 175.072 48.0819C175.072 53.9489 176.65 58.6487 179.804 62.1815C183.021 65.6513 187.311 67.3861 192.673 67.3861Z" fill="white"/>
<path d="M295.074 81.4858H278.893L251.829 40.5116V81.4858H235.647V15.0565H251.829L278.893 56.2199V15.0565H295.074V81.4858Z" fill="white"/>
<path d="M304.059 48.1765C304.059 41.6156 305.479 35.7802 308.318 30.6702C311.156 25.4972 315.099 21.4913 320.146 18.6524C325.256 15.7505 331.029 14.2995 337.463 14.2995C345.349 14.2995 352.099 16.3813 357.714 20.545C363.328 24.7086 367.082 30.3863 368.975 37.5781H351.184C349.86 34.8023 347.967 32.689 345.507 31.238C343.109 29.787 340.365 29.0615 337.274 29.0615C332.29 29.0615 328.253 30.7964 325.162 34.2661C322.07 37.7358 320.525 42.3726 320.525 48.1765C320.525 53.9804 322.07 58.6172 325.162 62.0869C328.253 65.5566 332.29 67.2915 337.274 67.2915C340.365 67.2915 343.109 66.566 345.507 65.115C347.967 63.6641 349.86 61.5507 351.184 58.7749H368.975C367.082 65.9667 363.328 71.6444 357.714 75.8081C352.099 79.9086 345.349 81.9589 337.463 81.9589C331.029 81.9589 325.256 80.5395 320.146 77.7006C315.099 74.7987 311.156 70.7927 308.318 65.6828C305.479 60.5729 304.059 54.7374 304.059 48.1765Z" fill="white"/>
<path d="M451.056 15.0565V81.4858H434.875V15.0565H451.056Z" fill="white"/>
<path d="M522.209 81.4858H506.028L478.964 40.5116V81.4858H462.783V15.0565H478.964L506.028 56.2199V15.0565H522.209V81.4858Z" fill="white"/>
<circle cx="397.619" cy="46" r="46" fill="#24262A"/>
<path fill-rule="evenodd" clip-rule="evenodd" d="M434.365 49.9605C430.422 62.8842 418.404 72.2856 404.19 72.2856C386.77 72.2856 372.647 58.1634 372.647 40.7428C372.647 28.7406 379.351 18.304 389.218 12.9729C373.641 16.9929 362.133 31.1383 362.133 47.9713C362.133 67.9325 378.315 84.1142 398.276 84.1142C417.57 84.1142 433.332 68.9965 434.365 49.9605Z" fill="white"/>
</svg>
